<!--?xml version="1.0" encoding="utf-8"?-->
<!-- Generator: Adobe Illustrator 15.1.0, SVG Export Plug-In . SVG Version: 6.00 Build 0)  -->

<svg version="1.1" id="_x32_" xmlns="http://www.w3.org/2000/svg" xmlns:xlink="http://www.w3.org/1999/xlink" x="0px" y="0px" width="512px" height="512px" viewBox="0 0 512 512" style="width: 256px; height: 256px; opacity: 1;" xml:space="preserve">
<style type="text/css">

	.st0{fill:#4B4B4B;}

</style>
<g>
	<path class="st0" d="M496.792,162.063c-10.469,0.563-12.766,0.656-28.063,1.453c-20.594-34.109-53.625-64.938-101.281-83.5
		c-24.563-9.609-53.031-15.953-85.688-17.797c-11.109-0.625-22.672-0.719-34.766-0.266c-14.609,0.563-28.406,2.438-41.422,5.391
		c-6.375,1.438-12.516,3.156-18.438,5.047c-29.984-21.422-60.453-24.875-79.813-24.266c-12.609,0.375-8.547,1.047-8.547,1.047
		c-2.938,0.359-5.563,2.016-7.156,4.516c-1.578,2.5-1.969,5.578-1.047,8.359l29,80.797c0,4.609-4.609,11.516-13.813-7.484
		c-3.281-6.734-8.281-2.766-9.203-1.578c-1.422,1.797-2.766,3.609-4.047,5.422c-26.75,37.547-32.813,70.609-58.891,80.953
		l-2.234,0.859c-16.359,6.281-34.156,11.453-31.031,27.094c2.891,14.422,11.234,58.188,14.703,68.656
		c6.563,19.609,13.391,25.141,25.766,33.109c6.813,4.391,13.703,8.516,20.719,12.578l0.016,0.016
		c21.484,12.328,44.234,23.469,69.531,35.422c6.734,11.125,13.281,26.531,18.016,38.234c3.25,8.078,5.625,14.438,6.594,16.375
		c3.266,6.531,8.172,11.438,22.906,11.438c14.703,0,22.875,0,32.703,0c9.813,0,13.063-9.797,13.063-21.266c0-1.75,0-3.984,0-6.547
		v-6.5h116.109v6.5c0,2.563,0,4.797,0,6.547c0,11.469,3.078,21.266,12.266,21.266c9.203,0,16.891,0,30.688,0
		c13.813,0,18.438-4.906,21.484-11.438c0.922-1.938,3.172-8.297,6.219-16.375l0,0c11.859-23.609,26.406-49.015,45.5-72.5
		c23.859-27.984,39.172-63.859,39.172-106.703c0-14.203-1.984-29.297-6.125-44.609c2.547-3.813,8.094-11.672,16.766-21.266
		C518.854,177.313,508.198,161.5,496.792,162.063z M123.511,248.766c-12.094,0-21.891-9.797-21.891-21.875
		c0-12.109,9.797-21.891,21.891-21.891c12.078,0,21.875,9.781,21.875,21.891C145.386,238.969,135.589,248.766,123.511,248.766z
		 M353.542,126.891c-43.953-9.313-89.984-11.125-112.844-11.313c-3.094-0.016-5.594-0.016-7.781,0l0.203-23.438
		c2.234,0,4.813,0,7.781,0.016c23.141,0.219,67.297,1.797,112.844,10.547L353.542,126.891z" style="fill: rgb(244, 114, 182);"></path>
</g>
</svg>
